<svg width="39" height="42" viewBox="0 0 39 42" fill="none" xmlns="http://www.w3.org/2000/svg">
<path d="M30.875 5.25H24.0825C23.4 3.22 21.6125 1.75 19.5 1.75C17.3875 1.75 15.6 3.22 14.9175 5.25H8.125C6.3375 5.25 4.875 6.825 4.875 8.75V33.25C4.875 35.175 6.3375 36.75 8.125 36.75H30.875C32.6625 36.75 34.125 35.175 34.125 33.25V8.75C34.125 6.825 32.6625 5.25 30.875 5.25ZM19.5 5.25C20.3938 5.25 21.125 6.0375 21.125 7C21.125 7.9625 20.3938 8.75 19.5 8.75C18.6062 8.75 17.875 7.9625 17.875 7C17.875 6.0375 18.6062 5.25 19.5 5.25ZM16.25 29.75L9.75 22.75L12.0412 20.2825L16.25 24.7975L26.9587 13.265L29.25 15.75L16.25 29.75Z" fill="black"/>
</svg>
